<svg id="Layer_1" data-name="Layer 1" xmlns="http://www.w3.org/2000/svg" viewBox="0 0 1079 274"><defs><style>.cls-1{fill:none;stroke:#e60014;stroke-miterlimit:10;stroke-width:7px;}.cls-2{fill:#e60014;}.cls-3{fill:#fff;}</style></defs><ellipse class="cls-1" cx="635.95" cy="86.89" rx="63.6" ry="77.02"/><rect class="cls-2" x="491.92" y="81.6" width="286.2" height="190.8"/><polygon class="cls-2" points="739.49 123.37 656.65 123.37 636.61 142 603.74 123.37 531.86 123.37 531.86 271.77 739.49 271.77 739.49 123.37"/><path class="cls-2" d="M102,176.22H58.41v66.53q0,14.26-6.74,21.64a22,22,0,0,1-17,7.38q-10.74,0-17.31-7.3t-6.57-21.4V61.92Q10.8,46.2,18,39.47t22.92-6.73H102q27.09,0,41.68,4.17a62,62,0,0,1,24.93,13.31A59.85,59.85,0,0,1,184.57,73a80.23,80.23,0,0,1,5.45,30.3q0,35.91-22.12,54.42T102,176.22ZM90.47,68.49H58.41v71.82H90.47q16.83,0,28.13-3.53t17.24-11.54q5.92-8,5.93-21,0-15.54-9.14-25.33Q122.37,68.5,90.47,68.49Z"/><path class="cls-2" d="M226.73,245.15V55.35q0-13.16,5.86-19.88t15.79-6.74q9.93,0,16,6.66t6.09,20v189.8q0,13.32-6.17,20a20.78,20.78,0,0,1-15.95,6.66,19.73,19.73,0,0,1-15.63-6.9Q226.74,258,226.73,245.15Z"/><path class="cls-2" d="M426.32,247.08q-15.87,12.35-30.7,18.51t-33.26,6.18q-16.83,0-29.58-6.66a48.63,48.63,0,0,1-19.64-18,46.86,46.86,0,0,1-6.89-24.69q0-18,11.38-30.62t31.26-17q4.17-1,20.68-4.33t28.3-6.17q11.78-2.81,25.57-6.82-.81-17.31-7-25.4T390.89,124q-16.67,0-25.09,4.65a40.66,40.66,0,0,0-14.42,13.95,147.73,147.73,0,0,1-8.5,12.26q-2.49,3-10.66,3a18.66,18.66,0,0,1-12.75-4.72A15.42,15.42,0,0,1,314.1,141q0-11.53,8.18-22.44t25.49-18q17.31-7,43.12-7,28.86,0,45.37,6.81t23.33,21.56q6.81,14.76,6.81,39.12,0,15.39-.08,26.13T466.08,211a87.88,87.88,0,0,0,4.09,25.73q4.08,13.38,4.09,17.23,0,6.73-6.34,12.26a21.2,21.2,0,0,1-14.34,5.54q-6.74,0-13.31-6.34T426.32,247.08Zm-2.88-63.32q-9.63,3.53-28,7.45T370.05,197a34.55,34.55,0,0,0-13.46,7.21q-6.42,5.38-6.42,15a22.19,22.19,0,0,0,7.54,16.92q7.53,7,19.72,7a51.35,51.35,0,0,0,24-5.69q11-5.69,16.11-14.67,5.94-9.93,5.94-32.7Z"/><path class="cls-2" d="M832.23,121.07l35.43,99.4,38.15-103.73q4.5-12.49,8.82-17.71t13.15-5.21A19.74,19.74,0,0,1,942,99.43a17.5,17.5,0,0,1,5.86,13,26.08,26.08,0,0,1-1.05,6.73,62.15,62.15,0,0,1-2.4,7.21c-.91,2.25-2,4.81-3.13,7.7l-42,104.2q-1.77,4.49-4.57,11.38a58.92,58.92,0,0,1-6.25,11.79,24.62,24.62,0,0,1-8.5,7.61,25.44,25.44,0,0,1-12.26,2.73q-9.3,0-14.83-4.25a28.54,28.54,0,0,1-8.17-9.3q-2.65-5.06-8.9-20L794.08,135.18c-1-2.57-2-5.13-3-7.7a65.4,65.4,0,0,1-2.56-7.85,27.84,27.84,0,0,1-1-6.89,16.77,16.77,0,0,1,2.73-8.9,21.29,21.29,0,0,1,7.53-7.21,20.34,20.34,0,0,1,10.42-2.81q10.91,0,15,6.25T832.23,121.07Z"/><path class="cls-2" d="M1001.36,73.46a23.11,23.11,0,0,1-15.63-5.61q-6.5-5.61-6.49-15.87a19.71,19.71,0,0,1,6.65-15.31,22.34,22.34,0,0,1,15.47-6,23,23,0,0,1,15.07,5.45Q1023,41.56,1023,52q0,10.1-6.41,15.79A22.22,22.22,0,0,1,1001.36,73.46ZM1023,118.67V245.15q0,13.15-6.25,19.88a20.72,20.72,0,0,1-15.87,6.74,19.73,19.73,0,0,1-15.63-6.9q-6-6.89-6-19.72V120q0-13,6-19.56t15.63-6.57a21,21,0,0,1,15.87,6.57Q1023,107,1023,118.67Z"/><path class="cls-3" d="M556.17,272.4c0-5.34,0-18,0-25.1V173.72a168.85,168.85,0,0,1,1.2-22.6,25.89,25.89,0,0,1,6.49-14.27q5.29-5.78,16-5.77a29.34,29.34,0,0,1,16.43,5.13A34.82,34.82,0,0,1,608.4,150q4.8,11.07,4.81,39.12V272.4H658.7V189.11q0-28.05,4.81-39.12a34.8,34.8,0,0,1,12.1-13.78A29.34,29.34,0,0,1,692,131.08q10.74,0,16,5.77a25.89,25.89,0,0,1,6.49,14.27,166.92,166.92,0,0,1,1.21,22.6V272.4h45.37V161.86q0-25.5-5.62-37.36a44.86,44.86,0,0,0-19.39-20.19q-13-7.07-30.94-7.06a76,76,0,0,0-29.3,6.16c-13.1,5.62-26.19,16.84-35.54,28.06q-2.22,2.67-4.4,5.48-2.18-2.8-4.4-5.48C622.2,120.25,609.11,109,596,103.41a76,76,0,0,0-29.29-6.16q-18,0-31,7.06a44.86,44.86,0,0,0-19.39,20.19q-5.61,11.88-5.61,37.36V272.4Z"/></svg>