<?xml version="1.0" standalone="no"?><svg xmlns="http://www.w3.org/2000/svg" viewBox="0 0 1440 320"><path fill="#e60014" fill-opacity="0.85" d="M0,192L8.9,202.7C17.8,213,36,235,53,256C71.1,277,89,299,107,272C124.4,245,142,171,160,154.7C177.8,139,196,181,213,186.7C231.1,192,249,160,267,122.7C284.4,85,302,43,320,42.7C337.8,43,356,85,373,96C391.1,107,409,85,427,74.7C444.4,64,462,64,480,101.3C497.8,139,516,213,533,213.3C551.1,213,569,139,587,128C604.4,117,622,171,640,170.7C657.8,171,676,117,693,128C711.1,139,729,213,747,202.7C764.4,192,782,96,800,58.7C817.8,21,836,43,853,69.3C871.1,96,889,128,907,138.7C924.4,149,942,139,960,144C977.8,149,996,171,1013,186.7C1031.1,203,1049,213,1067,229.3C1084.4,245,1102,267,1120,256C1137.8,245,1156,203,1173,176C1191.1,149,1209,139,1227,165.3C1244.4,192,1262,256,1280,250.7C1297.8,245,1316,171,1333,165.3C1351.1,160,1369,224,1387,240C1404.4,256,1422,224,1431,208L1440,192L1440,320L1431.1,320C1422.2,320,1404,320,1387,320C1368.9,320,1351,320,1333,320C1315.6,320,1298,320,1280,320C1262.2,320,1244,320,1227,320C1208.9,320,1191,320,1173,320C1155.6,320,1138,320,1120,320C1102.2,320,1084,320,1067,320C1048.9,320,1031,320,1013,320C995.6,320,978,320,960,320C942.2,320,924,320,907,320C888.9,320,871,320,853,320C835.6,320,818,320,800,320C782.2,320,764,320,747,320C728.9,320,711,320,693,320C675.6,320,658,320,640,320C622.2,320,604,320,587,320C568.9,320,551,320,533,320C515.6,320,498,320,480,320C462.2,320,444,320,427,320C408.9,320,391,320,373,320C355.6,320,338,320,320,320C302.2,320,284,320,267,320C248.9,320,231,320,213,320C195.6,320,178,320,160,320C142.2,320,124,320,107,320C88.9,320,71,320,53,320C35.6,320,18,320,9,320L0,320Z"></path></svg>